# xmcd CD database file generated by Grip 3.2.0
# 
# Track frame offsets:
#       150
#       9255
#       18812
#       26953
#       36261
#       47744
#       58253
#       70324
#       80441
# 
# Disc length: 1193 seconds
# 
# Revision: 0
# Processed by: cddbd v1.5.2PL0 Copyright (c) Steve Scherf et al.
# Submitted via: Grip 3.2.0
# 
DISCID=6f04a709
DTITLE=Jonny Cash - The Great
DYEAR=1950
DGENRE=Country
TTITLE0=Seasons Of My Heart
TTITLE1=I Feel Better All Over
TTITLE2=I Couldn't  Keep From Crying
TTITLE3=Time Changes Everything
TTITLE4=I'd Just Be Fool Enough (To Fall)
TTITLE5=Transfusion Blues
TTITLE6=Why Do You Punish Me(For Loving You)
TTITLE7=I'm So Lonesome I Could Cry
TTITLE8=Honky-Tonk Girl
EXTD=
EXTT0=
EXTT1=
EXTT2=
EXTT3=
EXTT4=
EXTT5=
EXTT6=
EXTT7=
EXTT8=
PLAYORDER=
